<svg width="228" height="228" viewBox="0 0 228 228" fill="none" xmlns="http://www.w3.org/2000/svg">
<path d="M166.048 136.53H71.7331L45.6123 205.218C64.6633 219.523 88.3417 228 114 228C144.128 228 171.526 216.313 191.908 197.225L166.048 136.53Z" fill="#4BCCEC"/>
<path d="M150.498 100.032H85.6126L71.7331 136.53H166.048L150.498 100.032Z" fill="white"/>
<path fill-rule="evenodd" clip-rule="evenodd" d="M228 114C228 146.833 214.12 176.424 191.908 197.225L166.048 136.53L150.498 100.032H85.6126L71.7331 136.53L45.6123 205.218C17.9159 184.42 0 151.302 0 114C0 51.0395 51.0395 0 114 0C176.96 0 228 51.0395 228 114Z" fill="#F58585"/>
</svg>
