<svg width="748" height="426" viewBox="0 0 748 426" fill="none" xmlns="http://www.w3.org/2000/svg">
<path fill-rule="evenodd" clip-rule="evenodd" d="M475.039 213.056L456.075 188.206C455.453 183.547 466.023 194.729 468.821 198.457C471.06 201.439 473.899 209.432 475.039 213.056Z" fill="#77A5DA"/>
<path fill-rule="evenodd" clip-rule="evenodd" d="M339.802 36C311.304 54.741 248.712 95.5779 226.327 108.997C208.387 119.752 149.802 151.834 103.923 176.092C103.526 177.334 97.6193 181.994 93.8886 186.653C90.1579 191.312 96.3757 189.449 99.1737 187.585C101.412 186.094 103.273 184.686 103.923 184.168C103.895 185.825 104.086 189.324 105.081 190.07C101.35 193.797 88.2926 203.737 80.5204 207.776C72.7481 211.814 81.7639 209.018 85.4946 207.776C89.2253 206.533 106.324 196.282 109.433 193.176C109.433 195.661 107.257 197.214 109.433 197.836C111.609 198.457 123.112 189.759 133.993 184.168C144.874 178.577 151.714 176.402 156.999 177.334C151.714 181.683 151.714 181.683 148.605 183.236C145.496 184.789 148.605 186.653 153.268 184.168C157.932 181.683 162.906 177.956 166.326 175.16C169.746 172.364 186.534 166.773 194.928 167.705C198.037 168.637 198.969 162.735 209.85 158.386C220.731 154.037 229.126 148.136 231.302 149.378C226.017 152.174 210.161 160.25 202.078 167.705C193.995 175.16 190.264 178.577 185.912 180.441C181.559 182.304 176.896 185.411 181.87 184.789C186.845 184.168 206.12 178.887 207.985 176.092C203.633 184.168 199.28 186.342 196.482 186.342C194.928 186.342 196.482 185.1 194.928 184.168C193.373 183.236 188.088 186.964 181.87 189.759C175.653 192.555 164.461 198.457 152.647 203.116C150.47 204.048 152.958 204.98 156.999 203.737C161.041 202.495 190.575 192.244 193.062 189.759C190.886 194.108 188.71 198.767 183.114 202.184C180.938 203.737 185.601 202.495 191.819 197.525C198.037 192.555 208.296 184.789 213.892 178.577C219.488 172.364 224.151 172.364 231.613 164.288C237.582 157.827 241.354 156.212 242.494 156.212C240.732 159.007 237.83 165.034 240.318 166.773C241.561 167.705 244.048 162.735 245.292 162.424C246.535 162.114 250.266 161.182 250.266 162.424C250.266 163.667 243.737 170.811 240.318 173.917C239.385 174.849 239.696 176.402 242.494 176.402C240.318 179.509 222.597 200.942 213.27 205.912C210.161 208.086 210.783 209.329 215.757 207.154C220.731 204.98 222.597 204.98 224.773 202.806C226.949 200.631 239.696 189.759 242.494 189.759C244.048 189.759 250.577 177.956 251.82 173.917C253.064 169.879 261.147 159.007 266.743 151.863C272.339 144.719 271.717 148.446 269.23 151.863C266.743 155.28 259.904 164.288 257.416 167.705C254.929 171.122 259.904 168.326 262.391 164.288C264.878 160.25 274.826 145.961 275.448 147.204C276.07 148.446 263.634 169.258 255.24 179.509C246.846 189.759 230.68 204.359 225.706 207.154C220.731 209.95 219.488 211.814 228.815 207.776C238.141 203.737 262.08 186.653 261.147 184.789C260.214 182.926 259.282 182.926 262.391 180.441C264.878 178.453 289.127 157.454 300.941 147.204C298.557 150.828 293.48 158.945 292.236 162.424C290.682 166.773 293.48 166.152 293.791 164.288C294.101 162.424 306.848 145.34 308.091 145.34C309.335 145.34 308.713 149.067 305.915 154.037C304.983 156.212 283.842 175.471 274.515 182.615C265.189 189.759 284.775 179.198 292.236 176.092C298.205 173.607 326.227 158.904 339.491 151.863C342.186 153.83 347.637 158.324 347.885 160.561C348.196 163.356 346.642 165.531 349.129 170.811C351.616 176.092 355.968 188.517 357.523 186.653C359.077 184.789 358.456 178.266 357.523 173.917C356.59 169.569 358.455 167.394 356.279 165.841C354.103 164.288 349.129 158.697 347.885 154.037C344.901 151.552 341.667 148.446 340.424 147.204L350.061 140.059C353.067 140.474 359.761 141.178 362.497 140.681C367.471 145.34 389.544 159.939 391.41 160.871C393.275 161.803 392.653 169.569 395.14 177.334C397.628 185.1 398.249 189.759 397.628 190.381C396.073 191.312 395.762 189.759 393.897 188.206C392.032 186.653 391.099 185.411 390.166 185.1C389.234 184.789 392.653 192.555 392.653 194.729C392.653 196.904 390.788 196.593 393.275 198.457C395.762 200.321 412.861 210.882 421.255 213.056C429.649 215.231 434.934 213.677 430.271 210.571C425.608 207.465 410.063 196.904 407.265 194.729C404.467 192.555 409.13 193.487 408.82 191.934C408.509 190.381 404.778 190.07 401.98 186.964C399.182 183.857 400.736 184.479 400.426 182.304C400.177 180.565 400.322 173.71 400.426 170.501L402.913 168.637C406.954 171.536 415.473 177.831 417.214 179.819C419.39 182.304 420.633 175.16 412.239 165.841C403.845 156.522 406.954 157.765 408.198 159.007C409.441 160.25 415.348 166.773 415.659 165.841C415.97 164.909 413.172 159.318 407.265 153.416C401.358 147.514 396.384 141.302 397.006 140.681C397.628 140.059 409.441 154.037 414.416 157.454C419.39 160.871 423.121 163.667 423.121 168.637C423.121 173.607 426.54 175.16 427.473 179.198C428.406 183.236 426.851 185.721 431.825 189.449C436.8 193.176 444.883 198.146 445.815 197.525C446.748 196.904 442.085 191.934 439.909 190.381C437.732 188.827 439.909 189.449 440.841 188.206C441.774 186.964 437.732 183.547 435.867 181.372C434.002 179.198 431.204 169.879 430.271 164.909C429.338 159.939 417.214 154.348 414.416 140.059C422.188 145.34 434.623 163.977 435.556 168.326C442.396 173.296 447.681 179.198 449.235 179.198C450.79 179.198 444.717 170.278 443.95 168.637C441.774 163.977 430.893 158.076 427.473 149.067C429.856 150.724 435.867 155.031 440.841 159.007C447.059 163.977 459.184 167.084 461.982 167.705C464.78 168.326 473.795 175.781 479.391 178.577C484.987 181.372 483.433 179.819 481.257 177.956C467.267 169.879 467.889 166.462 464.469 164.909C461.049 163.356 450.79 163.046 447.681 160.871C444.572 158.697 431.825 149.067 428.406 146.582C424.986 144.097 418.457 130.43 412.861 125.771C412.612 122.292 409.027 110.239 407.265 104.648C408.923 108.79 412.675 117.694 414.416 120.179C416.592 123.286 417.835 123.907 416.903 121.422C415.97 118.937 413.483 108.376 416.903 112.724C421.566 117.384 431.825 131.983 433.691 134.157C435.556 136.332 437.421 136.332 436.489 133.536C435.556 130.741 433.691 127.945 435.556 128.877C437.421 129.809 447.681 141.612 456.075 148.446C464.469 155.28 480.013 169.569 481.568 168.637C483.122 167.705 472.863 158.076 470.998 156.212C469.132 154.348 452.966 143.476 447.681 137.264C449.546 139.127 473.795 155.28 485.92 165.841C498.045 176.402 505.506 177.956 517.32 182.926C529.134 187.896 526.958 184.789 522.294 179.819C509.237 164.909 504.263 160.561 497.423 159.007C491.951 157.765 482.5 148.136 478.459 143.476C484.469 146.997 497.796 154.659 503.019 157.144C501.029 155.156 495.35 150.517 492.76 148.446C495.558 148.653 502.211 150.061 506.439 154.037C511.724 159.007 525.714 165.22 538.771 170.811C551.829 176.402 559.912 180.751 563.332 184.789C566.067 188.02 582.503 193.59 590.379 195.972C578.151 188.62 552.264 173.296 546.544 170.811C539.393 167.705 526.336 156.533 519.185 152.795C512.035 149.057 494.625 131.672 492.76 126.081C494.625 127.945 518.874 144.097 519.185 143.476C519.496 142.855 501.154 126.081 492.76 115.831C496.801 119.558 544.057 147.514 553.694 152.795C563.332 158.076 584.783 168.947 590.379 171.743C595.975 174.539 617.426 187.274 619.914 188.517C622.401 189.759 628.308 191.312 623.022 188.517C617.737 185.721 598.151 170.811 592.866 168.016L592.706 167.931C587.486 165.17 582.842 162.713 575.456 160.561C567.995 158.386 569.549 156.533 556.803 150.621C544.057 144.708 526.025 134.157 513.9 126.081C501.776 118.005 467.267 94.0869 465.712 85.7C472.241 94.0869 522.605 127.945 534.108 134.157C545.611 140.37 590.068 163.667 603.747 168.947C617.426 174.228 656.909 193.797 674.63 201.563C688.807 207.776 694.631 207.879 695.771 207.154C693.491 206.222 687.439 203.8 681.47 201.563C663.127 194.108 654.733 185.1 640.121 180.751C625.51 176.402 540.326 132.294 530.377 126.081C520.429 119.869 494.625 98.7462 488.718 94.0869C483.993 90.3594 472.448 81.3512 467.267 77.3131C480.013 84.9752 507.185 101.293 513.9 105.269C520.615 109.245 578.669 141.102 606.856 156.533C536.705 117.556 458.761 69.1919 410.374 37.8637C401.669 39.3133 381.337 42.1504 369.648 41.9019C357.958 41.6534 344.88 37.8637 339.802 36ZM207.985 156.212C212.234 152.277 222.037 144.47 227.26 144.719C222.783 148.446 212.545 153.934 207.985 156.212ZM259.593 177.645C272.379 166.214 284.61 139.127 289.127 127.013C289.127 127.945 289.438 129.809 290.682 129.809C292.236 129.809 294.412 128.877 296.278 129.809C298.143 130.741 295.967 134.468 297.521 134.468C299.076 134.468 302.806 134.157 300.941 136.332C299.076 138.506 290.06 148.446 290.682 148.136C291.303 147.825 298.454 142.234 300.941 140.059C303.428 137.885 305.915 140.991 303.739 142.234C301.668 143.416 295.377 148.253 291.29 151.396L290.682 151.863C286.64 154.969 271.096 169.569 259.593 177.645ZM398.249 112.724C400.011 118.626 404.467 130.43 408.198 130.43C411.928 130.43 403.12 118.626 398.249 112.724ZM406.022 139.127C411.245 145.091 413.794 150.103 414.416 151.863C412.343 150.103 407.327 145.713 403.845 142.234C399.493 137.885 394.519 128.877 396.073 127.945C397.628 127.013 399.493 131.672 406.022 139.127ZM396.073 151.863C394.332 148.633 381.254 139.749 374.933 135.711L397.628 157.454C397.835 156.937 397.814 155.094 396.073 151.863ZM472.552 107.444C468.573 105.207 457.629 98.6427 452.655 95.64C456.386 100.921 490.273 123.596 491.205 122.664C492.138 121.732 477.526 110.239 472.552 107.444ZM456.075 137.264C453.09 134.53 449.235 128.463 447.681 125.771C452.033 128.566 462.355 136.208 468.821 144.408C466.334 144.719 459.805 140.681 456.075 137.264ZM475.039 154.037C478.666 157.972 487.288 166.214 492.76 167.705C492.262 164.723 480.739 157.351 475.039 154.037Z" fill="white"/>
<path d="M289.127 127.013C284.61 139.127 272.379 166.214 259.593 177.645C271.096 169.569 286.64 154.969 290.682 151.863L291.29 151.396C295.377 148.253 301.668 143.416 303.739 142.234C305.915 140.991 303.428 137.885 300.941 140.059C298.454 142.234 291.303 147.825 290.682 148.136C290.06 148.446 299.076 138.506 300.941 136.332C302.806 134.157 299.076 134.468 297.521 134.468C295.967 134.468 298.143 130.741 296.278 129.809C294.412 128.877 292.236 129.809 290.682 129.809C289.438 129.809 289.127 127.945 289.127 127.013Z" fill="#77A5DA"/>
<path d="M456.075 188.206L475.039 213.056C473.899 209.432 471.06 201.439 468.821 198.457C466.023 194.729 455.453 183.547 456.075 188.206Z" fill="white"/>
<path d="M374.933 135.711C381.254 139.749 394.332 148.633 396.073 151.863C397.814 155.094 397.835 156.937 397.628 157.454L374.933 135.711Z" fill="#77A5DA"/>
<path d="M414.416 151.863C413.794 150.103 411.245 145.091 406.022 139.127C399.493 131.672 397.628 127.013 396.073 127.945C394.519 128.877 399.493 137.885 403.845 142.234C407.327 145.713 412.343 150.103 414.416 151.863Z" fill="#77A5DA"/>
<path d="M398.249 112.724C400.011 118.626 404.467 130.43 408.198 130.43C411.928 130.43 403.12 118.626 398.249 112.724Z" fill="#77A5DA"/>
<path d="M452.655 95.64C457.629 98.6427 468.573 105.207 472.552 107.444C477.526 110.239 492.138 121.732 491.205 122.664C490.273 123.596 456.386 100.921 452.655 95.64Z" fill="#77A5DA"/>
<path d="M447.681 125.771C449.235 128.463 453.09 134.53 456.075 137.264C459.805 140.681 466.334 144.719 468.821 144.408C462.355 136.208 452.033 128.566 447.681 125.771Z" fill="#77A5DA"/>
<path d="M475.039 154.037C478.666 157.972 487.288 166.214 492.76 167.705C492.262 164.723 480.739 157.351 475.039 154.037Z" fill="#77A5DA"/>
<path d="M207.985 156.212C212.234 152.277 222.037 144.47 227.26 144.719C222.783 148.446 212.545 153.934 207.985 156.212Z" fill="#77A5DA"/>
<path fill-rule="evenodd" clip-rule="evenodd" d="M48.1879 204.359C29.5345 212.311 8.29038 216.784 0 218.026V426H748V219.579C723.526 217.493 668.167 190.598 606.856 156.533C578.669 141.102 520.615 109.245 513.9 105.269C507.185 101.293 480.013 84.9752 467.267 77.3131C472.448 81.3512 483.993 90.3594 488.718 94.0869C494.625 98.7462 520.429 119.869 530.377 126.081C540.326 132.294 625.51 176.402 640.121 180.751C654.733 185.1 663.127 194.108 681.47 201.563C687.439 203.8 693.491 206.222 695.771 207.154C694.631 207.879 688.807 207.776 674.63 201.563C656.909 193.797 617.426 174.228 603.747 168.947C590.068 163.667 545.611 140.37 534.108 134.157C522.605 127.945 472.241 94.0869 465.712 85.7C467.267 94.0869 501.776 118.005 513.9 126.081C526.025 134.157 544.057 144.708 556.803 150.621C569.549 156.533 567.995 158.386 575.456 160.561C582.842 162.713 587.486 165.17 592.706 167.931L592.866 168.016C598.151 170.811 617.737 185.721 623.022 188.517C628.308 191.312 622.401 189.759 619.914 188.517C617.426 187.274 595.975 174.539 590.379 171.743C584.783 168.947 563.332 158.076 553.694 152.795C544.057 147.514 496.801 119.558 492.76 115.831C501.154 126.081 519.496 142.855 519.185 143.476C518.874 144.097 494.625 127.945 492.76 126.081C494.625 131.672 512.035 149.057 519.185 152.795C526.336 156.533 539.393 167.705 546.544 170.811C552.264 173.296 578.151 188.62 590.379 195.972C582.503 193.59 566.067 188.02 563.332 184.789C559.912 180.751 551.829 176.402 538.771 170.811C525.714 165.22 511.724 159.007 506.439 154.037C502.211 150.061 495.558 148.653 492.76 148.446C495.35 150.517 501.029 155.156 503.019 157.144C497.796 154.659 484.469 146.997 478.459 143.476C482.5 148.136 491.951 157.765 497.423 159.007C504.263 160.561 509.237 164.909 522.294 179.819C526.958 184.789 529.134 187.896 517.32 182.926C505.506 177.956 498.045 176.402 485.92 165.841C473.795 155.28 449.546 139.127 447.681 137.264C452.966 143.476 469.132 154.348 470.998 156.212C472.863 158.076 483.122 167.705 481.568 168.637C480.013 169.569 464.469 155.28 456.075 148.446C447.681 141.612 437.421 129.809 435.556 128.877C433.691 127.945 435.556 130.741 436.489 133.536C437.421 136.332 435.556 136.332 433.691 134.157C431.825 131.983 421.566 117.384 416.903 112.724C413.483 108.376 415.97 118.937 416.903 121.422C417.835 123.907 416.592 123.286 414.416 120.179C412.675 117.694 408.923 108.79 407.265 104.648C409.027 110.239 412.612 122.292 412.861 125.771C418.457 130.43 424.986 144.097 428.406 146.582C431.825 149.067 444.572 158.697 447.681 160.871C450.79 163.046 461.049 163.356 464.469 164.909C467.889 166.462 467.267 169.879 481.257 177.956C483.433 179.819 484.987 181.372 479.391 178.577C473.795 175.781 464.78 168.326 461.982 167.705C459.184 167.084 447.059 163.977 440.841 159.007C435.867 155.031 429.856 150.724 427.473 149.067C430.893 158.076 441.774 163.977 443.95 168.637C444.717 170.278 450.79 179.198 449.235 179.198C447.681 179.198 442.396 173.296 435.556 168.326C434.623 163.977 422.188 145.34 414.416 140.059C417.214 154.348 429.338 159.939 430.271 164.909C431.204 169.879 434.002 179.198 435.867 181.372C437.732 183.547 441.774 186.964 440.841 188.206C439.909 189.449 437.732 188.827 439.909 190.381C442.085 191.934 446.748 196.904 445.815 197.525C444.883 198.146 436.8 193.176 431.825 189.449C426.851 185.721 428.406 183.236 427.473 179.198C426.54 175.16 423.121 173.607 423.121 168.637C423.121 163.667 419.39 160.871 414.416 157.454C409.441 154.037 397.628 140.059 397.006 140.681C396.384 141.302 401.358 147.514 407.265 153.416C413.172 159.318 415.97 164.909 415.659 165.841C415.348 166.773 409.441 160.25 408.198 159.007C406.954 157.765 403.845 156.522 412.239 165.841C420.633 175.16 419.39 182.304 417.214 179.819C415.473 177.831 406.954 171.536 402.913 168.637L400.426 170.501C400.322 173.71 400.177 180.565 400.426 182.304C400.736 184.479 399.182 183.857 401.98 186.964C404.778 190.07 408.509 190.381 408.82 191.934C409.13 193.487 404.467 192.555 407.265 194.729C410.063 196.904 425.608 207.465 430.271 210.571C434.934 213.677 429.649 215.231 421.255 213.056C412.861 210.882 395.762 200.321 393.275 198.457C390.788 196.593 392.653 196.904 392.653 194.729C392.653 192.555 389.234 184.789 390.166 185.1C391.099 185.411 392.032 186.653 393.897 188.206C395.762 189.759 396.073 191.312 397.628 190.381C398.249 189.759 397.628 185.1 395.14 177.334C392.653 169.569 393.275 161.803 391.41 160.871C389.544 159.939 367.471 145.34 362.497 140.681C359.761 141.178 353.067 140.474 350.061 140.059L340.424 147.204C341.667 148.446 344.901 151.552 347.885 154.037C349.129 158.697 354.103 164.288 356.279 165.841C358.455 167.394 356.59 169.569 357.523 173.917C358.456 178.266 359.077 184.789 357.523 186.653C355.968 188.517 351.616 176.092 349.129 170.811C346.642 165.531 348.196 163.356 347.885 160.561C347.637 158.324 342.186 153.83 339.491 151.863C326.227 158.904 298.205 173.607 292.236 176.092C284.775 179.198 265.189 189.759 274.515 182.615C283.842 175.471 304.983 156.212 305.915 154.037C308.713 149.067 309.335 145.34 308.091 145.34C306.848 145.34 294.101 162.424 293.791 164.288C293.48 166.152 290.682 166.773 292.236 162.424C293.48 158.945 298.557 150.828 300.941 147.204C289.127 157.454 264.878 178.453 262.391 180.441C259.282 182.926 260.214 182.926 261.147 184.789C262.08 186.653 238.141 203.737 228.815 207.776C219.488 211.814 220.731 209.95 225.706 207.154C230.68 204.359 246.846 189.759 255.24 179.509C263.634 169.258 276.07 148.446 275.448 147.204C274.826 145.961 264.878 160.25 262.391 164.288C259.904 168.326 254.929 171.122 257.416 167.705C259.904 164.288 266.743 155.28 269.23 151.863C271.717 148.446 272.339 144.719 266.743 151.863C261.147 159.007 253.064 169.879 251.82 173.917C250.577 177.956 244.048 189.759 242.494 189.759C239.696 189.759 226.949 200.631 224.773 202.806C222.597 204.98 220.731 204.98 215.757 207.154C210.783 209.329 210.161 208.086 213.27 205.912C222.597 200.942 240.318 179.509 242.494 176.402C239.696 176.402 239.385 174.849 240.318 173.917C243.737 170.811 250.266 163.667 250.266 162.424C250.266 161.182 246.535 162.114 245.292 162.424C244.048 162.735 241.561 167.705 240.318 166.773C237.83 165.034 240.732 159.007 242.494 156.212C241.354 156.212 237.582 157.827 231.613 164.288C224.151 172.364 219.488 172.364 213.892 178.577C208.296 184.789 198.037 192.555 191.819 197.525C185.601 202.495 180.938 203.737 183.114 202.184C188.71 198.767 190.886 194.108 193.062 189.759C190.575 192.244 161.041 202.495 156.999 203.737C152.958 204.98 150.47 204.048 152.647 203.116C164.461 198.457 175.653 192.555 181.87 189.759C188.088 186.964 193.373 183.236 194.928 184.168C196.482 185.1 194.928 186.342 196.482 186.342C199.28 186.342 203.633 184.168 207.985 176.092C206.12 178.887 186.845 184.168 181.87 184.789C176.896 185.411 181.559 182.304 185.912 180.441C190.264 178.577 193.995 175.16 202.078 167.705C210.161 160.25 226.017 152.174 231.302 149.378C229.126 148.136 220.731 154.037 209.85 158.386C198.969 162.735 198.037 168.637 194.928 167.705C186.534 166.773 169.746 172.364 166.326 175.16C162.906 177.956 157.932 181.683 153.268 184.168C148.605 186.653 145.496 184.789 148.605 183.236C151.714 181.683 151.714 181.683 156.999 177.334C151.714 176.402 144.874 178.577 133.993 184.168C123.112 189.759 111.609 198.457 109.433 197.836C107.257 197.214 109.433 195.661 109.433 193.176C106.324 196.282 89.2253 206.533 85.4946 207.776C81.7639 209.018 72.7481 211.814 80.5204 207.776C88.2926 203.737 101.35 193.797 105.081 190.07C104.086 189.324 103.895 185.825 103.923 184.168C103.273 184.686 101.412 186.094 99.1737 187.585C96.3757 189.449 90.1579 191.312 93.8886 186.653C97.6193 181.994 103.526 177.334 103.923 176.092C78.2493 189.667 56.5542 200.792 48.1879 204.359ZM475.039 213.056L456.075 188.206C455.453 183.547 466.023 194.729 468.821 198.457C471.06 201.439 473.899 209.432 475.039 213.056Z" fill="#77A5DA"/>
</svg>
