<svg width="748" height="426" viewBox="0 0 748 426" fill="none" xmlns="http://www.w3.org/2000/svg">
<g clip-path="url(#clip0_397_276)">
<path fill-rule="evenodd" clip-rule="evenodd" d="M573.606 204.129H776V201.453L626.421 202.6L776 195.336V157.869C773.301 156.977 767.673 155.728 766.748 157.869C766.748 153.615 763.84 151.066 760.965 150.835C758.93 150.671 756.912 151.669 755.953 154.045C751.019 152.822 749.528 157.359 749.4 159.78C750.042 159.908 751.79 160.621 753.64 162.456C753.64 166.738 752.612 170.613 752.098 172.014C750.428 172.779 746.855 174.92 745.93 177.367C739.762 175.838 735.136 180.043 733.594 182.337H727.04C726.091 178.99 722.753 173.155 716.303 172.014C714.893 171.765 713.334 171.74 711.619 172.014C705.837 159.78 690.031 163.221 688.489 165.133C689.722 159.321 685.662 155.32 683.477 154.045C695.428 148.693 696.585 121.548 673.839 122.313C673.839 119.866 671.783 118.235 670.755 117.725C673.325 117.598 679.468 116.12 683.477 111.226C687.486 111.226 689.517 107.403 690.031 105.491C697.356 105.491 709.306 100.521 707.379 89.0514C705.451 77.5819 698.512 77.5819 694.271 78.3465C694.271 73.3763 680.779 71.8471 677.309 78.3465C674.618 75.9748 670.745 75.8062 668.988 76.0302C668.933 76.0395 668.879 76.0469 668.828 76.0526C668.879 76.0448 668.932 76.0373 668.988 76.0302C670.178 75.8304 672.206 74.7695 671.912 71.8471C676.152 71.8471 681.935 68.0239 681.164 61.9068C690.416 59.9952 698.127 37.0562 683.477 32.4683C681.164 21.7634 667.671 22.5281 665.744 27.4982C665.127 25.9689 664.202 26.3513 663.816 26.7336C664.587 20.4891 662.043 8 645.697 8C649.167 10.2939 651.094 13.7348 649.938 17.1756C645.697 13.3525 638.372 16.7933 637.601 25.9689C634.517 25.9689 632.975 28.7726 632.59 30.1744C634.517 27.4982 641.379 25.1278 642.613 30.9391C646.931 30.9391 648.267 34.2525 648.396 35.9092C647.239 35.5269 644.849 35.6034 644.54 38.9678C641.071 38.2031 637.216 38.5854 636.445 46.6141C630.276 45.4672 624.108 52.7312 627.578 58.0837C629.428 58.0837 630.662 59.358 631.047 59.9952C629.634 59.7404 626.807 59.5365 626.807 60.7599C624.34 60.1482 624.237 62.0343 624.494 63.0538C620.253 61.5245 617.94 63.4361 616.012 65.73C614.47 67.5651 615.37 70.5727 616.012 71.8471C609.844 71.8471 605.604 79.1111 610.23 85.2282C609.613 86.1458 609.973 87.3947 610.23 87.9045C608.945 87.6496 606.375 87.828 606.375 90.5807C603.599 89.6631 602.134 91.2179 601.749 92.11C599.821 86.7575 589.412 81.0227 587.485 87.1398H585.557C583.115 84.4636 576.459 80.1816 569.366 84.4636C568.44 85.0753 567.438 84.7185 567.052 84.4636C567.23 83.2895 567.097 81.4285 566.178 79.4935C565.102 77.2279 562.949 74.861 558.957 73.3764C560.113 67.6416 558.957 61.9068 553.945 59.9952C567.052 51.9666 563.583 43.5556 562.812 39.7324C562.041 35.9092 554.331 27.1159 547.006 32.4683C545.849 24.822 541.223 15.264 529.272 18.3226C532.973 21.687 532.87 23.8025 532.356 24.4397C530.429 24.0574 526.497 23.675 526.188 25.2043C529.272 25.2043 530.814 26.3513 530.043 27.8805C525.417 27.8805 520.405 29.0275 520.405 36.2915C520.405 37.8208 522.719 37.4385 522.719 39.7324C516.936 39.7324 509.611 40.8793 508.455 47.7611C503.057 50.055 502.672 53.1135 503.057 53.8782C503.057 54.6428 506.527 51.5842 508.455 52.3489C509.226 53.8782 511.539 52.3489 511.924 53.8782C512.233 55.1016 512.567 55.9172 512.695 56.1721C514.109 53.241 518.786 47.914 526.188 50.055C533.59 52.196 534.926 59.1032 534.669 62.2892C529.272 59.9952 522.719 61.1422 522.719 67.2593C525.032 63.8184 528.116 62.2892 528.887 63.4361C526.574 64.5831 523.875 66.877 522.719 69.5532C518.092 67.2593 513.852 66.4946 510.382 72.2294C507.606 76.8172 507.684 80.7679 508.069 82.1697C504.985 83.3166 504.985 86.7575 505.371 87.1398C508.069 83.3166 510.768 82.1697 513.466 82.1697C515.625 82.1697 516.936 83.4441 517.321 84.0813C513.852 83.4441 506.758 84.2342 506.142 92.4923C503.674 92.4923 503.314 96.0606 503.443 97.8447C498.046 95.1685 493.034 98.9917 491.878 100.903C486.018 103.656 485.581 108.677 486.095 110.844C488.151 107.785 494.191 102.203 501.901 104.344C511.539 107.02 511.924 117.725 511.539 121.548C507.298 120.784 501.901 120.401 501.901 124.607C495.733 124.607 493.805 129.195 493.805 131.106C496.889 128.965 497.403 130.469 497.275 131.489C492.957 132.406 491.878 136.969 491.878 139.135C488.408 135.312 483.011 134.547 479.541 136.459C476.072 138.37 474.144 142.194 474.144 143.723C476.611 140.97 478.513 140.537 479.156 140.664C477.1 141.556 472.988 144.64 472.988 149.84C464.892 149.84 462.964 151.752 461.422 154.81C460.189 157.257 462.193 157.614 463.35 157.486L462.964 159.016C461.936 159.398 459.957 160.698 460.266 162.839C461.808 161.004 464.763 160.29 466.048 160.163C466.048 156.339 468.361 152.134 471.831 151.752C475.301 151.369 477.614 151.752 478.385 154.045C480.312 150.605 482.625 147.928 487.251 151.752C491.878 155.575 490.721 161.692 490.336 163.603C485.093 163.603 481.726 166.407 480.698 167.809C476.997 167.809 475.815 169.593 475.686 170.485C479.156 169.975 486.018 170.562 485.709 176.985C489.179 175.838 493.034 176.22 493.42 176.985C494.576 172.014 499.202 169.721 502.286 170.485C501.515 161.692 504.985 154.81 512.695 155.575C514.623 155.575 509.611 154.428 510.382 149.075C511.153 143.723 513.081 142.958 515.008 142.576C516.936 142.194 513.081 142.576 513.466 135.312C513.852 128.048 529.272 119.255 533.127 128.812C534.284 131.106 534.284 128.43 535.055 126.519C535.672 124.989 537.625 124.607 538.525 124.607C539.167 122.823 541.84 119.407 547.391 120.019C552.943 120.631 556.13 123.333 557.029 124.607C561.655 124.607 563.069 131.744 563.197 135.312C562.041 134.547 559.265 133.783 557.415 136.841C546.312 135.618 544.821 137.861 545.464 139.135C539.912 140.358 538.525 146.272 538.525 149.075C539.039 149.203 540.067 149.687 540.067 150.605C535.132 150.605 533.898 153.918 533.898 155.575C527.73 155.575 522.333 157.486 522.719 165.133C515.008 165.897 511.539 171.632 511.539 174.308C515.394 170.103 516.936 168.956 518.478 169.721C515.702 172.473 513.98 174.946 513.466 175.838C510.999 175.838 510.382 177.112 510.382 177.749C508.223 178.055 507.427 181.7 507.298 183.484C505.756 183.484 505.114 184.503 504.985 185.013C528.116 184.631 575.225 184.096 578.618 185.013C582.858 186.16 543.536 187.307 526.959 187.307H486.095C490.593 187.689 500.667 188.454 504.985 188.454C504.985 191.13 502.672 194.189 499.973 193.807C497.275 193.424 494.191 192.277 491.107 196.1C481.546 196.1 392.544 199.669 349.238 201.453L491.878 203.747L402.824 206.178C474.535 207.394 553.27 207.664 573.606 204.129ZM503.443 203.747C516.807 202.855 544.924 201.682 550.475 204.129C537.214 206.072 513.595 204.684 503.443 203.747ZM616.012 165.515C614.779 163.68 610.358 163.731 608.302 163.986C608.302 155.957 611.001 148.311 617.94 149.458C618.711 147.291 621.487 143.264 626.421 144.488C624.879 138.753 629.891 133.783 636.059 134.547C635.674 131.234 636.907 124.454 644.926 123.842C654.949 123.078 658.033 130.724 658.033 137.988C656.877 137.606 648.396 139.135 648.396 148.311C638.758 145.634 633.361 152.134 633.361 161.692C632.975 160.163 628.349 156.722 624.108 155.957C620.716 155.345 619.611 157.486 619.482 158.633C618.326 158.888 616.012 160.621 616.012 165.515Z" fill="#B1B9CB"/>
<path d="M529.272 18.3226C523.875 11.8232 502.672 8 498.046 32.4683C496.812 32.4683 495.219 33.7427 494.576 34.3799C493.805 31.7037 486.866 28.6452 483.782 40.8793C481.469 39.7324 474.53 40.1147 474.915 50.055C475.223 58.0072 479.927 59.9952 482.24 59.9952C480.081 61.8304 480.055 65.3477 480.312 66.877C477.614 57.7884 453.095 59.2306 449.086 83.699C447.158 95.9331 459.495 102.433 462.579 102.05C461.962 103.274 462.322 104.599 462.579 105.109C456.667 102.815 444.614 102.433 443.689 119.255C439.448 119.255 437.135 121.548 437.135 125.372C431.352 119.255 418.245 116.961 408.993 133.783C404.752 142.576 409.764 152.899 412.848 154.428C406.679 155.957 406.679 167.044 410.535 169.338C408.221 169.338 408.993 171.25 407.065 171.25C407.065 165.133 396.271 160.163 391.259 169.338C388.175 170.103 386.633 174.691 388.175 178.514C386.941 178.514 386.633 179.533 386.633 180.043C381.236 175.455 373.525 181.955 374.296 188.454C372.369 188.454 371.983 186.16 368.128 187.307C365.044 183.484 361.189 186.542 361.189 188.454C358.722 189.983 359.133 192.66 359.647 193.807C359.133 193.424 357.565 193.042 355.406 194.571C351.089 193.959 349.495 196.61 349.238 198.012C345.769 198.139 338.135 198.7 335.36 199.924C332.584 201.147 327.521 201.453 325.336 201.453C321.224 201.708 313 202.6 313 204.129C336.825 204.823 369.045 205.605 402.824 206.178L491.878 203.747L349.238 201.453C392.544 199.669 481.546 196.1 491.107 196.1C494.191 192.277 497.275 193.424 499.973 193.807C502.672 194.189 504.985 191.13 504.985 188.454C500.667 188.454 490.593 187.689 486.095 187.307H526.959C543.536 187.307 582.858 186.16 578.618 185.013C575.225 184.096 528.116 184.631 504.985 185.013C505.114 184.503 505.756 183.484 507.298 183.484C507.427 181.7 508.223 178.055 510.382 177.749C510.382 177.112 510.999 175.838 513.466 175.838C513.98 174.946 515.702 172.473 518.478 169.721C516.936 168.956 515.394 170.103 511.539 174.308C511.539 171.632 515.008 165.897 522.719 165.133C522.333 157.486 527.73 155.575 533.898 155.575C533.898 153.918 535.132 150.605 540.067 150.605C540.067 149.687 539.039 149.203 538.525 149.075C538.525 146.272 539.912 140.358 545.464 139.135C544.821 137.861 546.312 135.618 557.415 136.841C559.265 133.783 562.041 134.547 563.197 135.312C563.069 131.744 561.655 124.607 557.029 124.607C556.13 123.333 552.943 120.631 547.391 120.019C541.84 119.407 539.167 122.823 538.525 124.607C537.625 124.607 535.672 124.989 535.055 126.519C534.284 128.43 534.284 131.106 533.127 128.812C529.272 119.255 513.852 128.048 513.466 135.312C513.081 142.576 516.936 142.194 515.008 142.576C513.081 142.958 511.153 143.723 510.382 149.075C509.611 154.428 514.623 155.575 512.695 155.575C504.985 154.81 501.515 161.692 502.286 170.485C499.202 169.721 494.576 172.014 493.42 176.985C493.034 176.22 489.179 175.838 485.709 176.985C486.018 170.562 479.156 169.975 475.686 170.485C475.815 169.593 476.997 167.809 480.698 167.809C481.726 166.407 485.093 163.603 490.336 163.603C490.721 161.692 491.878 155.575 487.251 151.752C482.625 147.928 480.312 150.605 478.385 154.045C477.614 151.752 475.301 151.369 471.831 151.752C468.361 152.134 466.048 156.339 466.048 160.163C464.763 160.29 461.808 161.004 460.266 162.839C459.957 160.698 461.936 159.398 462.964 159.016L463.35 157.486C462.193 157.614 460.189 157.257 461.422 154.81C462.964 151.752 464.892 149.84 472.988 149.84C472.988 144.64 477.1 141.556 479.156 140.664C478.513 140.537 476.611 140.97 474.144 143.723C474.144 142.194 476.072 138.37 479.541 136.459C483.011 134.547 488.408 135.312 491.878 139.135C491.878 136.969 492.957 132.406 497.275 131.489C497.403 130.469 496.889 128.965 493.805 131.106C493.805 129.195 495.733 124.607 501.901 124.607C501.901 120.401 507.298 120.784 511.539 121.548C511.924 117.725 511.539 107.02 501.901 104.344C494.191 102.203 488.151 107.785 486.095 110.844C485.581 108.677 486.018 103.656 491.878 100.903C493.034 98.9917 498.046 95.1685 503.443 97.8447C503.314 96.0606 503.674 92.4923 506.142 92.4923C506.758 84.2342 513.852 83.4441 517.321 84.0813C516.936 83.4441 515.625 82.1697 513.466 82.1697C510.768 82.1697 508.069 83.3166 505.371 87.1398C504.985 86.7575 504.985 83.3166 508.069 82.1697C507.684 80.7679 507.606 76.8172 510.382 72.2294C513.852 66.4946 518.092 67.2593 522.719 69.5532C523.875 66.877 526.574 64.5831 528.887 63.4361C528.116 62.2892 525.032 63.8184 522.719 67.2593C522.719 61.1422 529.272 59.9952 534.669 62.2892C534.926 59.1032 533.59 52.196 526.188 50.055C518.786 47.914 514.109 53.241 512.695 56.1721C512.567 55.9172 512.233 55.1016 511.924 53.8782C511.539 52.3489 509.226 53.8782 508.455 52.3489C506.527 51.5842 503.057 54.6428 503.057 53.8782C502.672 53.1135 503.057 50.055 508.455 47.7611C509.611 40.8793 516.936 39.7324 522.719 39.7324C522.719 37.4385 520.405 37.8208 520.405 36.2915C520.405 29.0275 525.417 27.8805 530.043 27.8805C530.814 26.3513 529.272 25.2043 526.188 25.2043C526.497 23.675 530.429 24.0574 532.356 24.4397C532.87 23.8025 532.973 21.687 529.272 18.3226Z" fill="#FFECCE"/>
<path d="M608.302 163.986C610.358 163.731 614.779 163.68 616.012 165.515C616.012 160.621 618.326 158.888 619.482 158.633C619.611 157.486 620.716 155.345 624.108 155.957C628.349 156.722 632.975 160.163 633.361 161.692C633.361 152.134 638.758 145.634 648.396 148.311C648.396 139.135 656.877 137.606 658.033 137.988C658.033 130.724 654.949 123.078 644.926 123.842C636.907 124.454 635.674 131.234 636.059 134.547C629.891 133.783 624.879 138.753 626.421 144.488C621.487 143.264 618.711 147.291 617.94 149.458C611.001 148.311 608.302 155.957 608.302 163.986Z" fill="#FFECCE"/>
<path d="M503.443 203.747C516.807 202.855 544.924 201.682 550.475 204.129C537.214 206.072 513.595 204.684 503.443 203.747Z" fill="#FFECCE"/>
<path d="M645.697 8C629.351 8 626.807 18.1951 627.578 23.2927C620.639 21.3811 610.615 28.6452 617.555 39.7324C616.398 40.1147 615.627 40.8793 616.012 42.4086C613.314 39.7324 605.218 40.497 605.218 46.6141C601.363 45.8495 598.279 47.3787 597.508 50.8196C596.351 46.6141 589.798 42.7909 582.473 44.7025C575.148 46.6141 572.45 52.7312 573.221 59.9952C568.209 60.7599 568.209 67.6416 571.293 69.9355C570.676 70.8531 571.293 71.8471 571.293 71.8471C565.125 71.8471 565.599 77.9642 566.178 79.4935C567.097 81.4285 567.23 83.2895 567.052 84.4636C567.438 84.7185 568.44 85.0753 569.366 84.4636C576.459 80.1816 583.115 84.4636 585.557 87.1398H587.485C589.412 81.0227 599.821 86.7575 601.749 92.11C602.134 91.2179 603.599 89.6631 606.375 90.5807C606.375 87.828 608.945 87.6496 610.23 87.9045C609.973 87.3947 609.613 86.1458 610.23 85.2282C605.604 79.1111 609.844 71.8471 616.012 71.8471C615.37 70.5727 614.47 67.5651 616.012 65.73C617.94 63.4361 620.253 61.5245 624.494 63.0538C624.237 62.0343 624.34 60.1482 626.807 60.7599C626.807 59.5365 629.634 59.7404 631.047 59.9952C630.662 59.358 629.428 58.0837 627.578 58.0837C624.108 52.7312 630.276 45.4672 636.445 46.6141C637.216 38.5854 641.071 38.2031 644.54 38.9678C644.849 35.6034 647.239 35.5269 648.396 35.9092C648.267 34.2525 646.931 30.9391 642.613 30.9391C641.379 25.1278 634.517 27.4982 632.59 30.1744C632.975 28.7726 634.517 25.9689 637.601 25.9689C638.372 16.7933 645.697 13.3525 649.938 17.1756C651.094 13.7348 649.167 10.2939 645.697 8Z" fill="#FFECCE"/>
<path d="M749.4 159.78C749.528 157.359 751.019 152.822 755.953 154.045C756.912 151.669 758.93 150.671 760.965 150.835C761.736 146.68 761.351 138.447 753.64 138.753C744.002 139.135 742.846 142.958 742.846 146.017C735.444 146.017 734.622 149.229 735.136 150.835C733.722 149.866 730.124 148.922 727.04 152.899C723.956 156.875 725.755 160.927 727.04 162.456C726.654 162.329 725.806 162.456 725.498 163.986C721.643 162.456 715.204 162.839 716.303 172.014C722.753 173.155 726.091 178.99 727.04 182.337H733.594C735.136 180.043 739.762 175.838 745.93 177.367C746.855 174.92 750.428 172.779 752.098 172.014C752.612 170.613 753.64 166.738 753.64 162.456C751.79 160.621 750.042 159.908 749.4 159.78Z" fill="#FFECCE"/>
<path d="M776 195.336L626.421 202.6L776 201.453V195.336Z" fill="#FFECCE"/>
</g>
<defs>
<clipPath id="clip0_397_276">
<rect width="748" height="426" fill="white"/>
</clipPath>
</defs>
</svg>
