<svg width="1203" height="888" viewBox="0 0 1203 888" fill="none" xmlns="http://www.w3.org/2000/svg">
<path fill-rule="evenodd" clip-rule="evenodd" d="M77.5 271C47.5 283.8 13.3333 291 0 293V888H1203V295.5C1163.64 292.142 1074.61 248.85 976 194.017C930.667 169.178 837.3 117.9 826.5 111.5C815.7 105.1 772 78.8333 751.5 66.5C759.833 73 778.4 87.5 786 93.5C795.5 101 837 135 853 145C869 155 1006 226 1029.5 233C1053 240 1066.5 254.5 1096 266.5C1105.6 270.1 1115.33 274 1119 275.5C1117.17 276.667 1107.8 276.5 1085 266.5C1056.5 254 993 222.5 971 214C949 205.5 877.5 168 859 158C840.5 148 759.5 93.5 749 80C751.5 93.5 807 132 826.5 145C846 158 875 174.983 895.5 184.5C916 194.017 913.5 197 925.5 200.5C937.379 203.965 944.848 207.919 953.242 212.364L953.5 212.5C962 217 993.5 241 1002 245.5C1010.5 250 1001 247.5 997 245.5C993 243.5 958.5 223 949.5 218.5C940.5 214 906 196.5 890.5 188C875 179.5 799 134.5 792.5 128.5C806 145 835.5 172 835 173C834.5 174 795.5 148 792.5 145C795.5 154 823.5 181.983 835 188C846.5 194.017 867.5 212 879 217C888.2 221 929.833 245.667 949.5 257.5C936.833 253.667 910.4 244.7 906 239.5C900.5 233 887.5 226 866.5 217C845.5 208 823 198 814.5 190C807.7 183.6 797 181.333 792.5 181C796.667 184.333 805.8 191.8 809 195C800.6 191 779.167 178.667 769.5 173C776 180.5 791.2 196 800 198C811 200.5 819 207.5 840 231.5C847.5 239.5 851 244.5 832 236.5C813 228.5 801 226 781.5 209C762 192 723 166 720 163C728.5 173 754.5 190.5 757.5 193.5C760.5 196.5 777 212 774.5 213.5C772 215 747 192 733.5 181C720 170 703.5 151 700.5 149.5C697.5 148 700.5 152.5 702 157C703.5 161.5 700.5 161.5 697.5 158C694.5 154.5 678 131 670.5 123.5C665 116.5 669 133.5 670.5 137.5C672 141.5 670 140.5 666.5 135.5C663.7 131.5 657.667 117.167 655 110.5C657.833 119.5 663.6 138.9 664 144.5C673 152 683.5 174 689 178C694.5 182 715 197.5 720 201C725 204.5 741.5 205 747 207.5C752.5 210 751.5 215.5 774 228.5C777.5 231.5 780 234 771 229.5C762 225 747.5 213 743 212C738.5 211 719 206 709 198C701 191.6 691.333 184.667 687.5 182C693 196.5 710.5 206 714 213.5C715.233 216.142 725 230.5 722.5 230.5C720 230.5 711.5 221 700.5 213C699 206 679 176 666.5 167.5C671 190.5 690.5 199.5 692 207.5C693.5 215.5 698 230.5 701 234C704 237.5 710.5 243 709 245C707.5 247 704 246 707.5 248.5C711 251 718.5 259 717 260C715.5 261 702.5 253 694.5 247C686.5 241 689 237 687.5 230.5C686 224 680.5 221.5 680.5 213.5C680.5 205.5 674.5 201 666.5 195.5C658.5 190 639.5 167.5 638.5 168.5C637.5 169.5 645.5 179.5 655 189C664.5 198.5 669 207.5 668.5 209C668 210.5 658.5 200 656.5 198C654.5 196 649.5 194 663 209C676.5 224 674.5 235.5 671 231.5C668.2 228.3 654.5 218.167 648 213.5L644 216.5C643.833 221.667 643.6 232.7 644 235.5C644.5 239 642 238 646.5 243C651 248 657 248.5 657.5 251C658 253.5 650.5 252 655 255.5C659.5 259 684.5 276 692 281C699.5 286 691 288.5 677.5 285C664 281.5 636.5 264.5 632.5 261.5C628.5 258.5 631.5 259 631.5 255.5C631.5 252 626 239.5 627.5 240C629 240.5 630.5 242.5 633.5 245C636.5 247.5 637 250 639.5 248.5C640.5 247.5 639.5 240 635.5 227.5C631.5 215 632.5 202.5 629.5 201C626.5 199.5 591 176 583 168.5C578.6 169.3 567.833 168.167 563 167.5L547.5 179C549.5 181 554.7 186 559.5 190C561.5 197.5 569.5 206.5 573 209C576.5 211.5 573.5 215 575 222C576.5 229 577.5 239.5 575 242.5C572.5 245.5 565.5 225.5 561.5 217C557.5 208.5 560 205 559.5 200.5C559.1 196.9 550.333 189.667 546 186.5C524.667 197.833 479.6 221.5 470 225.5C458 230.5 426.5 247.5 441.5 236C456.5 224.5 490.5 193.5 492 190C496.5 182 497.5 176 495.5 176C493.5 176 473 203.5 472.5 206.5C472 209.5 467.5 210.5 470 203.5C472 197.9 480.167 184.833 484 179C465 195.5 426 229.3 422 232.5C417 236.5 418.5 236.5 420 239.5C421.5 242.5 383 270 368 276.5C353 283 355 280 363 275.5C371 271 397 247.5 410.5 231C424 214.5 444 181 443 179C442 177 426 200 422 206.5C418 213 410 217.5 414 212C418 206.5 429 192 433 186.5C437 181 438 175 429 186.5C420 198 407 215.5 405 222C403 228.5 392.5 247.5 390 247.5C385.5 247.5 365 265 361.5 268.5C358 272 355 272 347 275.5C339 279 338 277 343 273.5C358 265.5 386.5 231 390 226C385.5 226 385 223.5 386.5 222C392 217 402.5 205.5 402.5 203.5C402.5 201.5 396.5 203 394.5 203.5C392.5 204 388.5 212 386.5 210.5C382.5 207.7 387.167 198 390 193.5C388.167 193.5 382.1 196.1 372.5 206.5C360.5 219.5 353 219.5 344 229.5C335 239.5 318.5 252 308.5 260C298.5 268 291 270 294.5 267.5C303.5 262 307 254.5 310.5 247.5C306.5 251.5 259 268 252.5 270C246 272 242 270.5 245.5 269C264.5 261.5 282.5 252 292.5 247.5C302.5 243 311 237 313.5 238.5C316 240 313.5 242 316 242C320.5 242 327.5 238.5 334.5 225.5C331.5 230 300.5 238.5 292.5 239.5C284.5 240.5 292 235.5 299 232.5C306 229.5 312 224 325 212C338 200 363.5 187 372 182.5C368.5 180.5 355 190 337.5 197C320 204 318.5 213.5 313.5 212C300 210.5 273 219.5 267.5 224C262 228.5 254 234.5 246.5 238.5C239 242.5 234 239.5 239 237C244 234.5 244 234.5 252.5 227.5C244 226 233 229.5 215.5 238.5C198 247.5 179.5 261.5 176 260.5C172.5 259.5 176 257 176 253C171 258 143.5 274.5 137.5 276.5C131.5 278.5 117 283 129.5 276.5C142 270 163 254 169 248C167.4 246.8 167.093 241.167 167.139 238.5C166.093 239.333 163.1 241.6 159.5 244C155 247 145 250 151 242.5C157 235 166.5 227.5 167.139 225.5C125.847 247.351 90.9555 265.259 77.5 271ZM764 285L733.5 245C732.5 237.5 749.5 255.5 754 261.5C757.6 266.3 762.167 279.167 764 285Z" fill="#77A5DA"/>
<path fill-rule="evenodd" clip-rule="evenodd" d="M546.5 0C500.667 30.1667 400 95.9 364 117.5C335.147 134.812 240.925 186.453 167.139 225.5C166.5 227.5 157 235 151 242.5C145 250 155 247 159.5 244C163.1 241.6 166.093 239.333 167.139 238.5C167.093 241.167 167.4 246.8 169 248C163 254 142 270 129.5 276.5C117 283 131.5 278.5 137.5 276.5C143.5 274.5 171 258 176 253C176 257 172.5 259.5 176 260.5C179.5 261.5 198 247.5 215.5 238.5C233 229.5 244 226 252.5 227.5C244 234.5 244 234.5 239 237C234 239.5 239 242.5 246.5 238.5C254 234.5 262 228.5 267.5 224C273 219.5 300 210.5 313.5 212C318.5 213.5 320 204 337.5 197C355 190 368.5 180.5 372 182.5C363.5 187 338 200 325 212C312 224 306 229.5 299 232.5C292 235.5 284.5 240.5 292.5 239.5C300.5 238.5 331.5 230 334.5 225.5C327.5 238.5 320.5 242 316 242C313.5 242 316 240 313.5 238.5C311 237 302.5 243 292.5 247.5C282.5 252 264.5 261.5 245.5 269C242 270.5 246 272 252.5 270C259 268 306.5 251.5 310.5 247.5C307 254.5 303.5 262 294.5 267.5C291 270 298.5 268 308.5 260C318.5 252 335 239.5 344 229.5C353 219.5 360.5 219.5 372.5 206.5C382.1 196.1 388.167 193.5 390 193.5C387.167 198 382.5 207.7 386.5 210.5C388.5 212 392.5 204 394.5 203.5C396.5 203 402.5 201.5 402.5 203.5C402.5 205.5 392 217 386.5 222C385 223.5 385.5 226 390 226C386.5 231 358 265.5 343 273.5C338 277 339 279 347 275.5C355 272 358 272 361.5 268.5C365 265 385.5 247.5 390 247.5C392.5 247.5 403 228.5 405 222C407 215.5 420 198 429 186.5C438 175 437 181 433 186.5C429 192 418 206.5 414 212C410 217.5 418 213 422 206.5C426 200 442 177 443 179C444 181 424 214.5 410.5 231C397 247.5 371 271 363 275.5C355 280 353 283 368 276.5C383 270 421.5 242.5 420 239.5C418.5 236.5 417 236.5 422 232.5C426 229.3 465 195.5 484 179C480.167 184.833 472 197.9 470 203.5C467.5 210.5 472 209.5 472.5 206.5C473 203.5 493.5 176 495.5 176C497.5 176 496.5 182 492 190C490.5 193.5 456.5 224.5 441.5 236C426.5 247.5 458 230.5 470 225.5C479.6 221.5 524.667 197.833 546 186.5C550.333 189.667 559.1 196.9 559.5 200.5C560 205 557.5 208.5 561.5 217C565.5 225.5 572.5 245.5 575 242.5C577.5 239.5 576.5 229 575 222C573.5 215 576.5 211.5 573 209C569.5 206.5 561.5 197.5 559.5 190C554.7 186 549.5 181 547.5 179L563 167.5C567.833 168.167 578.6 169.3 583 168.5C591 176 626.5 199.5 629.5 201C632.5 202.5 631.5 215 635.5 227.5C639.5 240 640.5 247.5 639.5 248.5C637 250 636.5 247.5 633.5 245C630.5 242.5 629 240.5 627.5 240C626 239.5 631.5 252 631.5 255.5C631.5 259 628.5 258.5 632.5 261.5C636.5 264.5 664 281.5 677.5 285C691 288.5 699.5 286 692 281C684.5 276 659.5 259 655 255.5C650.5 252 658 253.5 657.5 251C657 248.5 651 248 646.5 243C642 238 644.5 239 644 235.5C643.6 232.7 643.833 221.667 644 216.5L648 213.5C654.5 218.167 668.2 228.3 671 231.5C674.5 235.5 676.5 224 663 209C649.5 194 654.5 196 656.5 198C658.5 200 668 210.5 668.5 209C669 207.5 664.5 198.5 655 189C645.5 179.5 637.5 169.5 638.5 168.5C639.5 167.5 658.5 190 666.5 195.5C674.5 201 680.5 205.5 680.5 213.5C680.5 221.5 686 224 687.5 230.5C689 237 686.5 241 694.5 247C702.5 253 715.5 261 717 260C718.5 259 711 251 707.5 248.5C704 246 707.5 247 709 245C710.5 243 704 237.5 701 234C698 230.5 693.5 215.5 692 207.5C690.5 199.5 671 190.5 666.5 167.5C679 176 699 206 700.5 213C711.5 221 720 230.5 722.5 230.5C725 230.5 715.233 216.142 714 213.5C710.5 206 693 196.5 687.5 182C691.333 184.667 701 191.6 709 198C719 206 738.5 211 743 212C747.5 213 762 225 771 229.5C780 234 777.5 231.5 774 228.5C751.5 215.5 752.5 210 747 207.5C741.5 205 725 204.5 720 201C715 197.5 694.5 182 689 178C683.5 174 673 152 664 144.5C663.6 138.9 657.833 119.5 655 110.5C657.667 117.167 663.7 131.5 666.5 135.5C670 140.5 672 141.5 670.5 137.5C669 133.5 665 116.5 670.5 123.5C678 131 694.5 154.5 697.5 158C700.5 161.5 703.5 161.5 702 157C700.5 152.5 697.5 148 700.5 149.5C703.5 151 720 170 733.5 181C747 192 772 215 774.5 213.5C777 212 760.5 196.5 757.5 193.5C754.5 190.5 728.5 173 720 163C723 166 762 192 781.5 209C801 226 813 228.5 832 236.5C851 244.5 847.5 239.5 840 231.5C819 207.5 811 200.5 800 198C791.2 196 776 180.5 769.5 173C779.167 178.667 800.6 191 809 195C805.8 191.8 796.667 184.333 792.5 181C797 181.333 807.7 183.6 814.5 190C823 198 845.5 208 866.5 217C887.5 226 900.5 233 906 239.5C910.4 244.7 936.833 253.667 949.5 257.5C929.833 245.667 888.2 221 879 217C867.5 212 846.5 194.017 835 188C823.5 181.983 795.5 154 792.5 145C795.5 148 834.5 174 835 173C835.5 172 806 145 792.5 128.5C799 134.5 875 179.5 890.5 188C906 196.5 940.5 214 949.5 218.5C958.5 223 993 243.5 997 245.5C1001 247.5 1010.5 250 1002 245.5C993.5 241 962 217 953.5 212.5L953.242 212.364C944.848 207.919 937.379 203.965 925.5 200.5C913.5 197 916 194.017 895.5 184.5C875 174.983 846 158 826.5 145C807 132 751.5 93.5 749 80C759.5 93.5 840.5 148 859 158C877.5 168 949 205.5 971 214C993 222.5 1056.5 254 1085 266.5C1107.8 276.5 1117.17 276.667 1119 275.5C1115.33 274 1105.6 270.1 1096 266.5C1066.5 254.5 1053 240 1029.5 233C1006 226 869 155 853 145C837 135 795.5 101 786 93.5C778.4 87.5 759.833 73 751.5 66.5C772 78.8333 815.7 105.1 826.5 111.5C837.3 117.9 930.667 169.178 976 194.017C863.176 131.277 737.82 53.4276 660 3C646 5.33333 613.3 9.9 594.5 9.5C575.7 9.1 554.667 3 546.5 0ZM334.5 193.5C341.333 187.167 357.1 174.6 365.5 175C358.3 181 341.833 189.833 334.5 193.5ZM417.5 228C438.063 209.6 457.735 166 465 146.5C465 148 465.5 151 467.5 151C470 151 473.5 149.5 476.5 151C479.5 152.5 476 158.5 478.5 158.5C481 158.5 487 158 484 161.5C481 165 466.5 181 467.5 180.5C468.5 180 480 171 484 167.5C488 164 492 169 488.5 171C485.17 172.903 475.051 180.689 468.478 185.748L467.5 186.5C461 191.5 436 215 417.5 228ZM640.5 123.5C643.333 133 650.5 152 656.5 152C662.5 152 648.333 133 640.5 123.5ZM653 166C661.4 175.6 665.5 183.667 666.5 186.5C663.167 183.667 655.1 176.6 649.5 171C642.5 164 634.5 149.5 637 148C639.5 146.5 642.5 154 653 166ZM637 186.5C634.2 181.3 613.167 167 603 160.5L639.5 195.5C639.833 194.667 639.8 191.7 637 186.5ZM760 115C753.6 111.4 736 100.833 728 96C734 104.5 788.5 141 790 139.5C791.5 138 768 119.5 760 115ZM733.5 163C728.7 158.6 722.5 148.833 720 144.5C727 149 743.6 161.3 754 174.5C750 175 739.5 168.5 733.5 163ZM764 190C769.833 196.333 783.7 209.6 792.5 212C791.7 207.2 773.167 195.333 764 190Z" fill="white"/>
<path d="M465 146.5C457.735 166 438.063 209.6 417.5 228C436 215 461 191.5 467.5 186.5L468.478 185.748C475.051 180.689 485.17 172.903 488.5 171C492 169 488 164 484 167.5C480 171 468.5 180 467.5 180.5C466.5 181 481 165 484 161.5C487 158 481 158.5 478.5 158.5C476 158.5 479.5 152.5 476.5 151C473.5 149.5 470 151 467.5 151C465.5 151 465 148 465 146.5Z" fill="#77A5DA"/>
<path d="M733.5 245L764 285C762.167 279.167 757.6 266.3 754 261.5C749.5 255.5 732.5 237.5 733.5 245Z" fill="white"/>
<path d="M603 160.5C613.167 167 634.2 181.3 637 186.5C639.8 191.7 639.833 194.667 639.5 195.5L603 160.5Z" fill="#77A5DA"/>
<path d="M666.5 186.5C665.5 183.667 661.4 175.6 653 166C642.5 154 639.5 146.5 637 148C634.5 149.5 642.5 164 649.5 171C655.1 176.6 663.167 183.667 666.5 186.5Z" fill="#77A5DA"/>
<path d="M640.5 123.5C643.333 133 650.5 152 656.5 152C662.5 152 648.333 133 640.5 123.5Z" fill="#77A5DA"/>
<path d="M728 96C736 100.833 753.6 111.4 760 115C768 119.5 791.5 138 790 139.5C788.5 141 734 104.5 728 96Z" fill="#77A5DA"/>
<path d="M720 144.5C722.5 148.833 728.7 158.6 733.5 163C739.5 168.5 750 175 754 174.5C743.6 161.3 727 149 720 144.5Z" fill="#77A5DA"/>
<path d="M764 190C769.833 196.333 783.7 209.6 792.5 212C791.7 207.2 773.167 195.333 764 190Z" fill="#77A5DA"/>
<path d="M334.5 193.5C341.333 187.167 357.1 174.6 365.5 175C358.3 181 341.833 189.833 334.5 193.5Z" fill="#77A5DA"/>
</svg>
